<?xml version="1.0" encoding="UTF-8"?><svg id="a" xmlns="http://www.w3.org/2000/svg" viewBox="0 0 1000 1000"><rect x="66.63" y="246.4" width="866.73" height="192.59" rx="10" ry="10" style="fill:#cae3f4; stroke:#0070ba; stroke-width:10px;"/><rect x="277.45" y="305.19" width="191.66" height="75" rx="10" ry="10" style="fill:#fff; stroke:#0070ba; stroke-width:5px;"/><polyline points="423.08 337.58 434.63 347.85 446.19 337.58" style="fill:none; stroke:#0070ba; stroke-linecap:round; stroke-linejoin:round; stroke-width:3px;"/><rect x="295.3" y="335.19" width="99.29" height="15" rx="7.5" ry="7.5" style="fill:#0070ba;"/><rect x="524.14" y="305.19" width="363.66" height="75" rx="10" ry="10" style="fill:#fff; stroke:#0070ba; stroke-width:5px;"/><line x1="869.86" y1="333.7" x2="851.18" y2="352.38" style="fill:none; stroke:#0070ba; stroke-linecap:round; stroke-miterlimit:10; stroke-width:3px;"/><line x1="869.86" y1="352.38" x2="851.18" y2="333.7" style="fill:none; stroke:#0070ba; stroke-linecap:round; stroke-miterlimit:10; stroke-width:3px;"/><rect x="540.24" y="322.69" width="195.04" height="40" rx="10" ry="10" style="fill:#66cb92;"/><line x1="571.1" y1="334.52" x2="553.81" y2="350.87" style="fill:none; stroke:#fff; stroke-linecap:round; stroke-miterlimit:10; stroke-width:3.08px;"/><line x1="571.1" y1="350.87" x2="553.81" y2="334.52" style="fill:none; stroke:#fff; stroke-linecap:round; stroke-miterlimit:10; stroke-width:3.08px;"/><rect x="595.62" y="335.19" width="123.62" height="15" rx="7.5" ry="7.5" style="fill:#fff;"/><path d="M153.62,339.75c-.47-3.33-1.76-6.57-3.85-9.4l12.22-12.22c4.79,2.83,11.06,2.19,15.18-1.93,4.88-4.88,4.88-12.79,0-17.66-4.88-4.88-12.79-4.88-17.66,0-4.12,4.12-4.76,10.39-1.93,15.18l-12.22,12.22c-8.15-6.02-19.69-5.34-27.07,2.04-8.13,8.13-8.13,21.31,0,29.44,7.38,7.38,18.92,8.06,27.07,2.04l12.22,12.22c-2.83,4.79-2.19,11.06,1.93,15.18,4.88,4.88,12.79,4.88,17.66,0s4.88-12.79,0-17.66c-4.12-4.12-10.39-4.76-15.18-1.93l-12.22-12.22c2.02-2.73,3.28-5.84,3.79-9.05h20.39c.55,2.03,1.63,3.94,3.22,5.53,4.88,4.88,12.79,4.88,17.66,0,4.88-4.88,4.88-12.79,0-17.66-4.88-4.88-12.79-4.88-17.66,0-1.68,1.68-2.79,3.73-3.31,5.89h-20.24ZM143.32,353c5.69-5.69,5.69-14.92,0-20.61s-14.92-5.69-20.61,0c-5.69,5.69-5.69,14.92,0,20.61,5.69,5.69,14.92,5.69,20.61,0ZM172.76,382.44c2.44-2.44,2.44-6.39,0-8.83s-6.39-2.44-8.83,0-2.44,6.39,0,8.83,6.39,2.44,8.83,0ZM190.42,338.28c2.44,2.44,2.44,6.39,0,8.83s-6.39,2.44-8.83,0c-2.44-2.44-2.44-6.39,0-8.83,2.44-2.44,6.39-2.44,8.83,0ZM172.76,311.78c2.44-2.44,2.44-6.39,0-8.83s-6.39-2.44-8.83,0c-2.44,2.44-2.44,6.39,0,8.83s6.39,2.44,8.83,0Z" style="fill:#0070ba; fill-rule:evenodd;"/><rect x="62.1" y="723.6" width="30" height="30" rx="15" ry="15" style="fill:#0070ba;"/><rect x="117.1" y="723.6" width="211.92" height="30" rx="15" ry="15" style="fill:#0070ba;"/><path d="M575.08,727.27c6.24,0,11.33,5.08,11.33,11.33s-5.08,11.33-11.33,11.33h-137.86c-6.24,0-11.33-5.08-11.33-11.33s5.08-11.33,11.33-11.33h137.86M575.08,723.6h-137.86c-8.28,0-15,6.72-15,15s6.72,15,15,15h137.86c8.28,0,15-6.72,15-15s-6.72-15-15-15h0Z" style="fill:#66cb92;"/><rect x="702.92" y="723.6" width="234.97" height="30" rx="15" ry="15" style="fill:#0070ba;"/><rect x="62.1" y="623.6" width="30" height="30" rx="15" ry="15" style="fill:#0070ba;"/><rect x="117.1" y="623.6" width="211.92" height="30" rx="15" ry="15" style="fill:#0070ba;"/><path d="M575.08,627.27c6.24,0,11.33,5.08,11.33,11.33s-5.08,11.33-11.33,11.33h-137.86c-6.24,0-11.33-5.08-11.33-11.33s5.08-11.33,11.33-11.33h137.86M575.08,623.6h-137.86c-8.28,0-15,6.72-15,15s6.72,15,15,15h137.86c8.28,0,15-6.72,15-15s-6.72-15-15-15h0Z" style="fill:#66cb92;"/><rect x="702.92" y="623.6" width="234.97" height="30" rx="15" ry="15" style="fill:#0070ba;"/><rect x="62.1" y="523.6" width="30" height="30" rx="15" ry="15" style="fill:#0070ba;"/><rect x="117.1" y="523.6" width="211.92" height="30" rx="15" ry="15" style="fill:#0070ba;"/><rect x="396.32" y="523.6" width="193.76" height="30" rx="15" ry="15" style="fill:#66cb92;"/><rect x="702.92" y="523.6" width="234.97" height="30" rx="15" ry="15" style="fill:#0070ba;"/><rect x="614.47" y="523.6" width="30" height="30" rx="15" ry="15" style="fill:#66cb92;"/><polyline points="658.81 535.24 666.38 541.96 673.95 535.24" style="fill:none; stroke:#0070ba; stroke-linecap:round; stroke-linejoin:round; stroke-width:3px;"/><polyline points="360.5 535.26 368.08 541.99 375.65 535.26" style="fill:none; stroke:#0070ba; stroke-linecap:round; stroke-linejoin:round; stroke-width:3px;"/><rect x="67.89" y="587.53" width="869" height="2" style="fill:#cae3f4;"/><rect x="67.89" y="687.53" width="869" height="2" style="fill:#cae3f4;"/></svg>